# xmcd
#
# Track frame offsets:
#	150
#	20642
#	37926
#	57110
#	73397
#	90677
#	114760
#	136302
#	155841
#	169090
#
# Disc length: 2550 seconds
#
# Revision: 1
# Processed by: cddbd v1.5.2PL0 Copyright (c) Steve Scherf et al.
# Submitted via: audiograbber 1.83.01
#
DISCID=8309f40a
DTITLE=George Harrison - The Dark Horse Years 1976-1992 [SACD 1] - Live In Japa
DTITLE=n [remastered 2004]
DYEAR=2004
DGENRE=Rock
TTITLE0=I Want To Tell You [live]
TTITLE1=Old Brown Shoe [live]
TTITLE2=Taxman [live]
TTITLE3=Give Me Love (Give Me Peace On Earth) [live]
TTITLE4=If I Needed Someone [live]
TTITLE5=Something [live]
TTITLE6=What Is Life [live]
TTITLE7=Dark Horse [live]
TTITLE8=Piggies [live]
TTITLE9=Got My Mind Set On You [live]
EXTD=
EXTT0=
EXTT1=
EXTT2=
EXTT3=
EXTT4=
EXTT5=
EXTT6=
EXTT7=
EXTT8=
EXTT9=
PLAYORDER=
